<svg xmlns="http://www.w3.org/2000/svg" viewBox="0 0 48 48" width="48" height="48">
  <defs>
    <linearGradient id="gradientBlue" x1="0%" y1="0%" x2="100%" y2="100%">
      <stop offset="0%" style="stop-color:#58A6FF;stop-opacity:1" />
      <stop offset="100%" style="stop-color:#7C3AED;stop-opacity:1" />
    </linearGradient>
    <linearGradient id="gradientAccent" x1="0%" y1="0%" x2="100%" y2="100%">
      <stop offset="0%" style="stop-color:#10B981;stop-opacity:1" />
      <stop offset="100%" style="stop-color:#06B6D4;stop-opacity:1" />
    </linearGradient>
  </defs>
  
  <!-- Background circle with gradient -->
  <circle cx="24" cy="24" r="22" fill="url(#gradientBlue)" opacity="0.1"/>
  
  <!-- Book base -->
  <path d="M12 16 L12 34 C12 35 13 36 14 36 L34 36 C35 36 36 35 36 34 L36 16 C36 15 35 14 34 14 L14 14 C13 14 12 15 12 16 Z" 
        fill="url(#gradientBlue)"/>
  
  <!-- Book spine -->
  <rect x="23" y="14" width="2" height="22" fill="rgba(255,255,255,0.3)"/>
  
  <!-- Book pages detail -->
  <path d="M15 18 L23 18 M15 22 L23 22 M15 26 L23 26 M15 30 L23 30" 
        stroke="rgba(255,255,255,0.6)" stroke-width="1.5" stroke-linecap="round"/>
  <path d="M25 18 L33 18 M25 22 L33 22 M25 26 L33 26 M25 30 L33 30" 
        stroke="rgba(255,255,255,0.6)" stroke-width="1.5" stroke-linecap="round"/>
  
  <!-- Graduation cap -->
  <polygon points="24,8 34,13 24,18 14,13" fill="url(#gradientAccent)"/>
  <path d="M34 13 L34 18 C34 19 29 21 24 21 C19 21 14 19 14 18 L14 13" 
        fill="url(#gradientAccent)" opacity="0.7"/>
  
  <!-- Tassel -->
  <line x1="34" y1="13" x2="34" y2="19" stroke="url(#gradientAccent)" stroke-width="1.5"/>
  <circle cx="34" cy="20" r="1.5" fill="url(#gradientAccent)"/>
  
  <!-- Sparkle accents -->
  <circle cx="38" cy="10" r="1" fill="#10B981" opacity="0.8"/>
  <circle cx="10" cy="38" r="1" fill="#06B6D4" opacity="0.8"/>
  <path d="M 8 12 L 9 13 L 8 14 L 7 13 Z" fill="#58A6FF" opacity="0.6"/>
  <path d="M 40 36 L 41 37 L 40 38 L 39 37 Z" fill="#7C3AED" opacity="0.6"/>
</svg>
